<?xml version="1.0" encoding="UTF-8" standalone="no"?>
<!-- Created with Inkscape (http://www.inkscape.org/) -->

<svg
   xmlns:dc="http://purl.org/dc/elements/1.1/"
   xmlns:cc="http://creativecommons.org/ns#"
   xmlns:rdf="http://www.w3.org/1999/02/22-rdf-syntax-ns#"
   xmlns:svg="http://www.w3.org/2000/svg"
   xmlns="http://www.w3.org/2000/svg"
   xmlns:sodipodi="http://sodipodi.sourceforge.net/DTD/sodipodi-0.dtd"
   xmlns:inkscape="http://www.inkscape.org/namespaces/inkscape"
   width="34.57"
   height="26.34"
   id="svg4793"
   version="1.1"
   inkscape:version="0.48.1 "
   sodipodi:docname="Neues Dokument 3">
  <defs
     id="defs4795">
    <clipPath
       clipPathUnits="userSpaceOnUse"
       id="clipPath582">
      <path
         inkscape:connector-curvature="0"
         d="m 174.61,74.657 26.066,0 0,21.721 -26.066,0 0,-21.721 z"
         id="path584" />
    </clipPath>
  </defs>
  <sodipodi:namedview
     id="base"
     pagecolor="#ffffff"
     bordercolor="#666666"
     borderopacity="1.0"
     inkscape:pageopacity="0.0"
     inkscape:pageshadow="2"
     inkscape:zoom="20.17038"
     inkscape:cx="17.285"
     inkscape:cy="13.169998"
     inkscape:document-units="px"
     inkscape:current-layer="layer1"
     showgrid="false"
     fit-margin-top="0"
     fit-margin-left="0"
     fit-margin-right="0"
     fit-margin-bottom="0"
     inkscape:window-width="1024"
     inkscape:window-height="708"
     inkscape:window-x="-4"
     inkscape:window-y="-4"
     inkscape:window-maximized="1" />
  <metadata
     id="metadata4798">
    <rdf:RDF>
      <cc:Work
         rdf:about="">
        <dc:format>image/svg+xml</dc:format>
        <dc:type
           rdf:resource="http://purl.org/dc/dcmitype/StillImage" />
        <dc:title></dc:title>
      </cc:Work>
    </rdf:RDF>
  </metadata>
  <g
     inkscape:label="Ebene 1"
     inkscape:groupmode="layer"
     id="layer1"
     transform="translate(-229.90824,-426.99975)">
    <g
       id="g578"
       transform="matrix(1.25,0,0,-1.25,12.643348,548.47094)">
      <g
         id="g580"
         clip-path="url(#clipPath582)">
        <g
           id="g586"
           transform="translate(197.0344,94.2809)">
          <path
             d="m 0,0 c 0,0 1.561,0.027 2.658,-1.074 0,0 0.983,-0.882 0.977,-3.383 0,0 -0.017,-0.962 -0.516,-3.232 C 3.104,-7.754 3.032,-7.867 2.892,-7.867 l -2.14,0 c -0.192,0 -0.268,0.182 -0.231,0.302 0,0 0.258,0.755 0.417,1.667 0,0 0.384,2.551 -0.408,3.36 0,0 -0.437,0.686 -1.614,0.447 l 0,-5.549 c 0,-0.06 -0.044,-0.227 -0.248,-0.227 l -2.277,0 c -0.125,0 -0.238,0.104 -0.238,0.226 l 0,7.389 C -3.847,-0.129 -3.779,0 -3.591,0 L 0,0 z"
             style="fill:#da002f;fill-opacity:1;fill-rule:nonzero;stroke:none"
             id="path588"
             inkscape:connector-curvature="0" />
        </g>
        <g
           id="g590"
           transform="translate(186.5406,85.9148)">
          <path
             d="M 0,0 C 1.59,0 2.798,-1.488 2.299,-3.758 2.284,-3.824 2.212,-3.936 2.072,-3.936 l -2.14,0 c -0.191,0 -0.274,0.136 -0.231,0.302 0.079,0.307 0.318,1.884 -0.785,1.543 l 0,-5.549 c 0,-0.06 -0.044,-0.227 -0.248,-0.227 l -2.277,0 c -0.125,0 -0.238,0.104 -0.238,0.226 l 0,7.389 C -3.847,-0.129 -3.779,0 -3.591,0 L 0,0 z"
             style="fill:#da002f;fill-opacity:1;fill-rule:nonzero;stroke:none"
             id="path592"
             inkscape:connector-curvature="0" />
        </g>
        <g
           id="g594"
           transform="translate(190.5836,84.2939)">
          <path
             d="m 0,0 c 0.867,0 1.392,0.597 1.392,0.597 l 0,-6.601 c 0,-0.064 -0.045,-0.242 -0.248,-0.242 l -2.277,0 c -0.126,0 -0.239,0.111 -0.239,0.24 l 0,6.575 C -1.372,0.569 -0.867,0 0,0"
             style="fill:#da002f;fill-opacity:1;fill-rule:nonzero;stroke:none"
             id="path596"
             inkscape:connector-curvature="0" />
        </g>
        <g
           id="g598"
           transform="translate(184.17,90.5184)">
          <path
             d="m 0,0 c 0.013,2.615 -2.012,3.362 -2.012,3.362 -1.785,0.746 -3.034,0.335 -3.034,0.335 l 0,2.163 -2.782,0 0,-8.324 c 0,-1.936 2.715,-1.718 2.715,-1.718 2.515,0 3.778,1.249 3.778,1.249 C 0.075,-1.632 0,0 0,0 m -2.879,-0.185 c 0,-0.9 -0.695,-1.641 -1.508,-1.63 -0.249,0.004 -0.467,0.062 -0.654,0.157 l 0.001,2.95 c 0.196,0.101 0.416,0.157 0.648,0.156 0.292,-10e-4 1.426,-0.196 1.513,-1.633"
             style="fill:#da002f;fill-opacity:1;fill-rule:nonzero;stroke:none"
             id="path600"
             inkscape:connector-curvature="0" />
        </g>
        <g
           id="g602"
           transform="translate(182.4384,82.2959)">
          <path
             d="m 0,0 c 0,0 0.033,1.444 -1.24,2.459 -0.921,0.744 -1.697,1.16 -3.788,1.16 0,0 -2.276,0 -2.662,0 -0.079,0 -0.138,-0.046 -0.138,-0.125 l 0,-8.886 2.782,0 0,1.695 c 0,0 1.686,-0.437 3.034,0.335 C -0.732,-2.628 0.016,-1.469 0,0 M -2.879,-0.099 C -2.966,-1.535 -4.1,-1.731 -4.392,-1.732 -4.624,-1.733 -4.844,-1.677 -5.04,-1.576 l -0.001,2.95 c 0.187,0.096 0.405,0.154 0.654,0.157 0.813,0.011 1.508,-0.73 1.508,-1.63"
             style="fill:#da002f;fill-opacity:1;fill-rule:nonzero;stroke:none"
             id="path604"
             inkscape:connector-curvature="0" />
        </g>
        <g
           id="g606"
           transform="translate(188.678,91.9511)">
          <path
             d="m 0,0 c 0.83,0 1.503,-0.721 1.503,-1.611 0,-0.89 -0.673,-1.611 -1.503,-1.611 -0.83,0 -1.503,0.721 -1.503,1.611 C -1.503,-0.721 -0.83,0 0,0 m 1.902,-3.811 c 0.483,0 0.925,-0.179 1.263,-0.474 0.686,0.707 1.105,1.645 1.105,2.674 0,2.2 -1.912,3.984 -4.27,3.984 -2.358,0 -4.27,-1.784 -4.27,-3.984 0,-2.195 1.903,-3.975 4.253,-3.984 0.072,0.997 0.903,1.784 1.919,1.784"
             style="fill:#da002f;fill-opacity:1;fill-rule:nonzero;stroke:none"
             id="path608"
             inkscape:connector-curvature="0" />
        </g>
        <g
           id="g610"
           transform="translate(197.6113,81.9799)">
          <path
             d="M 0,0 C 0.001,-0.054 0.019,-0.105 0.048,-0.144 1.792,-2.434 2.046,-3.395 2.086,-3.642 2.104,-3.746 2.042,-3.934 1.844,-3.934 l -2.144,0 c -0.151,0 -0.212,0.169 -0.212,0.169 -0.433,1.125 -1.057,1.767 -1.057,1.767 -0.027,0.024 -0.055,0.032 -0.079,0.031 l -0.001,0 c -0.024,0.001 -0.052,-0.007 -0.079,-0.031 0,0 -0.625,-0.642 -1.057,-1.767 0,0 -0.061,-0.169 -0.213,-0.169 l -2.144,0 c -0.197,0 -0.259,0.188 -0.242,0.292 0.041,0.247 0.295,1.208 2.039,3.498 0.029,0.039 0.047,0.09 0.048,0.144 l 0,0.001 c -10e-4,0.054 -0.019,0.106 -0.048,0.144 -1.744,2.29 -1.998,3.251 -2.039,3.499 -0.017,0.104 0.045,0.291 0.242,0.291 l 2.144,0 c 0.152,0 0.213,-0.169 0.213,-0.169 C -2.353,2.641 -1.728,2 -1.728,2 -1.701,1.975 -1.673,1.968 -1.649,1.968 l 0.001,0 c 0.024,0 0.052,0.007 0.079,0.032 0,0 0.624,0.641 1.057,1.766 0,0 0.061,0.169 0.212,0.169 l 2.144,0 c 0.198,0 0.26,-0.187 0.242,-0.291 C 2.046,3.396 1.792,2.435 0.048,0.145 0.019,0.107 0.001,0.055 0,0.001 L 0,0 z"
             style="fill:#da002f;fill-opacity:1;fill-rule:nonzero;stroke:none"
             id="path612"
             inkscape:connector-curvature="0" />
        </g>
      </g>
    </g>
  </g>
</svg>
