<?xml version="1.0" standalone="no"?>
<!DOCTYPE svg PUBLIC "-//W3C//DTD SVG 20010904//EN"
 "http://www.w3.org/TR/2001/REC-SVG-20010904/DTD/svg10.dtd">
<svg version="1.0" xmlns="http://www.w3.org/2000/svg"
 width="1200.000000pt" height="891.000000pt" viewBox="0 0 1200.000000 891.000000"
 preserveAspectRatio="xMidYMid meet">

<g transform="translate(0.000000,891.000000) scale(0.100000,-0.100000)"
fill="#000000" stroke="none">
<path d="M1090 6732 c0 -1798 0 -1840 20 -1916 27 -107 73 -189 150 -267 211
-215 540 -299 1085 -278 529 21 976 153 1350 400 134 88 317 268 418 409 80
112 195 339 236 465 119 360 118 739 -3 1100 -129 385 -427 711 -786 858 -413
170 -867 227 -1217 153 l-63 -13 -2 461 -3 461 -592 3 -593 2 0 -1838z m1646
-87 c119 -40 171 -72 260 -160 118 -118 179 -248 204 -441 17 -132 -15 -293
-82 -414 -166 -298 -477 -421 -780 -309 l-58 21 0 638 0 638 83 26 c115 36
113 35 208 31 58 -2 112 -12 165 -30z"/>
<path d="M6207 7679 c-649 -53 -1222 -431 -1497 -987 -161 -324 -208 -703
-131 -1049 142 -636 650 -1139 1320 -1307 126 -32 290 -56 385 -56 70 0 76 2
80 23 22 114 32 152 57 217 39 103 99 191 189 281 283 281 729 317 1055 84
l63 -45 51 56 c202 220 340 505 399 819 25 139 23 417 -6 561 -74 370 -258
689 -542 941 -302 267 -690 429 -1114 463 -142 11 -165 11 -309 -1z m308
-1024 c112 -29 202 -81 289 -169 91 -91 136 -161 171 -264 133 -394 -79 -815
-461 -912 -318 -81 -640 111 -754 450 -31 93 -39 279 -15 384 44 201 200 399
373 473 122 53 280 68 397 38z"/>
<path d="M8358 7654 c-15 -8 -32 -23 -38 -34 -7 -12 -10 -551 -10 -1639 l0
-1620 24 -28 24 -28 531 -3 530 -3 33 30 33 29 3 1210 2 1210 68 9 c388 47
653 -116 765 -472 87 -279 94 -832 16 -1260 -24 -128 -94 -410 -139 -554 -35
-113 -33 -138 12 -176 l30 -25 484 0 c525 0 527 0 552 54 16 35 104 472 146
723 77 458 96 686 77 933 -29 376 -103 684 -224 925 -146 293 -417 512 -787
636 -284 95 -342 99 -1302 99 -689 -1 -807 -3 -830 -16z"/>
<path d="M360 4071 c-13 -9 -15 -236 -18 -1926 l-2 -1915 595 0 595 0 0 361 0
362 33 -7 c220 -46 562 -56 762 -22 343 57 626 203 894 461 312 300 474 683
474 1120 0 372 -160 741 -431 997 -279 263 -597 437 -933 512 -264 58 -297 60
-1159 63 -509 2 -800 0 -810 -6z m1603 -897 c341 -88 559 -460 482 -824 -58
-273 -217 -452 -475 -531 -127 -39 -297 -28 -402 27 l-28 15 0 633 0 634 53
21 c28 11 70 25 92 30 65 15 212 12 278 -5z"/>
<path d="M3839 4051 l-29 -29 0 -1622 0 -1622 29 -29 29 -29 531 0 530 0 28
24 28 24 5 1214 5 1213 30 6 c154 33 267 -31 312 -179 24 -76 24 -341 0 -454
-19 -92 -10 -131 34 -153 43 -23 976 -22 1019 0 41 21 45 32 71 180 29 168 31
431 5 575 -77 423 -324 737 -673 856 -54 18 -127 38 -163 43 -41 7 -376 11
-913 11 l-849 0 -29 -29z"/>
<path d="M7933 4065 c-41 -28 -48 -81 -24 -168 77 -281 360 -767 758 -1300 57
-76 109 -150 114 -165 16 -41 3 -69 -81 -182 -441 -594 -721 -1073 -795 -1359
-19 -74 -14 -110 22 -145 l26 -26 496 0 c423 0 500 2 518 15 11 8 36 50 53 92
86 208 209 425 336 593 92 122 116 144 146 137 45 -12 209 -234 323 -437 32
-58 83 -161 113 -230 29 -69 64 -135 78 -147 l25 -23 495 0 496 0 29 29 c39
39 38 91 -2 213 -95 286 -370 747 -747 1252 -133 178 -136 192 -65 286 422
556 715 1042 819 1359 32 98 32 150 -2 190 l-26 31 -502 0 -503 0 -20 -22
c-12 -13 -44 -77 -73 -143 -60 -141 -137 -282 -225 -415 -74 -110 -175 -239
-199 -252 -28 -16 -54 1 -117 78 -136 167 -273 400 -374 637 -21 48 -47 94
-59 102 -32 23 -1001 22 -1033 0z"/>
<path d="M7726 3594 c-104 -95 -271 -172 -426 -195 -219 -32 -464 36 -633 176
l-67 55 0 -1415 c0 -1024 3 -1422 11 -1438 30 -59 6 -57 582 -57 l529 0 29 29
29 29 0 1431 c0 787 -1 1431 -2 1431 -2 -1 -25 -21 -52 -46z"/>
</g>
</svg>
