<svg width="165" height="16" viewBox="0 0 165 16" fill="none" xmlns="http://www.w3.org/2000/svg">
<path d="M9.73521 15.6752V12.8606H3.02581V9.30988H9.09935V6.64682H3.02581V3.13938H9.73521V0.324762H0V15.6752H9.73521Z" fill="url(#paint0_linear_704_1403)"/>
<path d="M23.0216 11.7348L18.9653 0.324762H15.6544L21.3991 15.6752H24.5126L30.2792 0.324762H27.0779L23.0216 11.7348Z" fill="url(#paint1_linear_704_1403)"/>
<path d="M46 15.6752V12.8606H39.2906V9.30988H45.3641V6.64682H39.2906V3.13938H46V0.324762H36.2648V15.6752H46Z" fill="url(#paint2_linear_704_1403)"/>
<path d="M59.4703 15.6752H62.8469L59.5142 9.39648C61.5533 8.81191 62.825 7.18809 62.825 5.04465C62.825 2.3816 60.8955 0.324762 57.8697 0.324762H51.7962V15.6752H54.8439V9.76455H56.4226L59.4703 15.6752ZM54.8439 7.18809V2.92287H57.2996C58.8345 2.92287 59.7334 3.76725 59.7334 5.06631C59.7334 6.32206 58.8345 7.18809 57.2996 7.18809H54.8439Z" fill="url(#paint3_linear_704_1403)"/>
<path d="M79.344 3.98376C78.9932 2.25169 77.5461 0 73.7748 0C70.8367 0 68.359 2.07848 68.359 4.80649C68.359 7.12314 69.9596 8.70365 72.4373 9.20162L74.608 9.63464C75.8139 9.8728 76.4936 10.5656 76.4936 11.4533C76.4936 12.5359 75.5946 13.3369 73.9721 13.3369C71.7795 13.3369 70.7051 11.9729 70.5735 10.4574L67.767 11.1935C68.0082 13.3802 69.8281 16 73.9502 16C77.568 16 79.5633 13.6184 79.5633 11.2585C79.5633 9.09337 78.0504 7.2747 75.2219 6.73342L73.0512 6.32206C71.911 6.10555 71.3629 5.43437 71.3629 4.58999C71.3629 3.5724 72.3276 2.64141 73.7967 2.64141C75.77 2.64141 76.4717 3.96211 76.6252 4.80649L79.344 3.98376Z" fill="url(#paint4_linear_704_1403)"/>
<path d="M96.9059 3.16103V0.324762H84.0352V3.16103H88.9467V15.6752H91.9944V3.16103H96.9059Z" fill="url(#paint5_linear_704_1403)"/>
<path d="M103.229 7.98917C103.229 4.52503 105.684 2.87957 108.074 2.87957C110.486 2.87957 112.942 4.52503 112.942 7.98917C112.942 11.4533 110.486 13.0988 108.074 13.0988C105.684 13.0988 103.229 11.4533 103.229 7.98917ZM100.093 8.01083C100.093 12.9472 103.865 16 108.074 16C112.306 16 116.077 12.9472 116.077 8.01083C116.077 3.05277 112.306 0 108.074 0C103.865 0 100.093 3.05277 100.093 8.01083Z" fill="url(#paint6_linear_704_1403)"/>
<path d="M128.76 15.6752H132.137L128.804 9.39648C130.843 8.81191 132.115 7.18809 132.115 5.04465C132.115 2.3816 130.185 0.324762 127.159 0.324762H121.086V15.6752H124.134V9.76455H125.712L128.76 15.6752ZM124.134 7.18809V2.92287H126.589C128.124 2.92287 129.023 3.76725 129.023 5.06631C129.023 6.32206 128.124 7.18809 126.589 7.18809H124.134Z" fill="url(#paint7_linear_704_1403)"/>
<path d="M147.91 15.6752V12.8606H141.201V9.30988H147.274V6.64682H141.201V3.13938H147.91V0.324762H138.175V15.6752H147.91Z" fill="url(#paint8_linear_704_1403)"/>
<path d="M164.781 3.98376C164.43 2.25169 162.983 0 159.211 0C156.273 0 153.796 2.07848 153.796 4.80649C153.796 7.12314 155.396 8.70365 157.874 9.20162L160.045 9.63464C161.251 9.8728 161.93 10.5656 161.93 11.4533C161.93 12.5359 161.031 13.3369 159.409 13.3369C157.216 13.3369 156.142 11.9729 156.01 10.4574L153.204 11.1935C153.445 13.3802 155.265 16 159.387 16C163.005 16 165 13.6184 165 11.2585C165 9.09337 163.487 7.2747 160.659 6.73342L158.488 6.32206C157.348 6.10555 156.8 5.43437 156.8 4.58999C156.8 3.5724 157.764 2.64141 159.233 2.64141C161.207 2.64141 161.908 3.96211 162.062 4.80649L164.781 3.98376Z" fill="url(#paint9_linear_704_1403)"/>
<defs>
<linearGradient id="paint0_linear_704_1403" x1="0" y1="0" x2="165.304" y2="7.87854" gradientUnits="userSpaceOnUse">
<stop offset="0.148441" stop-color="#54B7FF"/>
<stop offset="0.81289" stop-color="#8147E0"/>
</linearGradient>
<linearGradient id="paint1_linear_704_1403" x1="0" y1="0" x2="165.304" y2="7.87854" gradientUnits="userSpaceOnUse">
<stop offset="0.148441" stop-color="#54B7FF"/>
<stop offset="0.81289" stop-color="#8147E0"/>
</linearGradient>
<linearGradient id="paint2_linear_704_1403" x1="0" y1="0" x2="165.304" y2="7.87854" gradientUnits="userSpaceOnUse">
<stop offset="0.148441" stop-color="#54B7FF"/>
<stop offset="0.81289" stop-color="#8147E0"/>
</linearGradient>
<linearGradient id="paint3_linear_704_1403" x1="0" y1="0" x2="165.304" y2="7.87854" gradientUnits="userSpaceOnUse">
<stop offset="0.148441" stop-color="#54B7FF"/>
<stop offset="0.81289" stop-color="#8147E0"/>
</linearGradient>
<linearGradient id="paint4_linear_704_1403" x1="0" y1="0" x2="165.304" y2="7.87854" gradientUnits="userSpaceOnUse">
<stop offset="0.148441" stop-color="#54B7FF"/>
<stop offset="0.81289" stop-color="#8147E0"/>
</linearGradient>
<linearGradient id="paint5_linear_704_1403" x1="0" y1="0" x2="165.304" y2="7.87854" gradientUnits="userSpaceOnUse">
<stop offset="0.148441" stop-color="#54B7FF"/>
<stop offset="0.81289" stop-color="#8147E0"/>
</linearGradient>
<linearGradient id="paint6_linear_704_1403" x1="0" y1="0" x2="165.304" y2="7.87854" gradientUnits="userSpaceOnUse">
<stop offset="0.148441" stop-color="#54B7FF"/>
<stop offset="0.81289" stop-color="#8147E0"/>
</linearGradient>
<linearGradient id="paint7_linear_704_1403" x1="0" y1="0" x2="165.304" y2="7.87854" gradientUnits="userSpaceOnUse">
<stop offset="0.148441" stop-color="#54B7FF"/>
<stop offset="0.81289" stop-color="#8147E0"/>
</linearGradient>
<linearGradient id="paint8_linear_704_1403" x1="0" y1="0" x2="165.304" y2="7.87854" gradientUnits="userSpaceOnUse">
<stop offset="0.148441" stop-color="#54B7FF"/>
<stop offset="0.81289" stop-color="#8147E0"/>
</linearGradient>
<linearGradient id="paint9_linear_704_1403" x1="0" y1="0" x2="165.304" y2="7.87854" gradientUnits="userSpaceOnUse">
<stop offset="0.148441" stop-color="#54B7FF"/>
<stop offset="0.81289" stop-color="#8147E0"/>
</linearGradient>
</defs>
</svg>
